<mxfile host="app.diagrams.net" modified="2023-11-27T17:41:43.612Z" agent="Mozilla/5.0 (Windows NT 10.0; Win64; x64) AppleWebKit/537.36 (KHTML, like Gecko) Chrome/119.0.0.0 Safari/537.36 Edg/119.0.0.0" version="22.1.4" etag="mHJz_IvUKQTtll3LWBlu" type="github">
  <diagram name="Page-1" id="K9o2VSr3tPjac48EMJPc">
    <mxGraphModel>
      <root>
        <mxCell id="0" />
        <mxCell id="1" parent="0" />
      </root>
    </mxGraphModel>
  </diagram>
</mxfile>
